# xmcd
#
# Track frame offsets:
#  150
#  12272
#  22987
#  37924
#  46992
#  60432
#  71514
#  85674
#  99279
#  112898
#  126532
#  141158
#  154742
#  169039
#  180949
#  191039
#  205959
#  216972
#  229617
#  243410
#  256868
#  271535
#  286086
#  299476
#  312550
#
# Disc length: 4373 seconds
#
# Revision: 0
# Processed by: cddbd v1.5.1PL2 Copyright (c) Steve Scherf et al.
# Submitted via: Collectorz.com_Music_Collector 6.9
#
DISCID=55111319
DTITLE=Varouis - 50 most Loved Songs Disk 1
DYEAR=2001
DGENRE=Country
TTITLE0=Auf Wiedersehn, Sweetheart
TTITLE1=Blueberry Hill,
TTITLE2=Bluebird Of Happiness
TTITLE3=I Remember You
TTITLE4=I'll Never Fall In Love Again
TTITLE5=Kiss Of Fire
TTITLE6=La Vie En Rose
TTITLE7=Little Things Mean A Lot
TTITLE8=Love Is A Many Splendored Thing
TTITLE9=Melody Of Love
TTITLE10=Moonlight In Vermont
TTITLE11=My Special Angel
TTITLE12=Now Is The Hour
TTITLE13=Only You
TTITLE14=Peg O' My Heart
TTITLE15=Release Me
TTITLE16=Return To Me
TTITLE17=Spanish Eyes
TTITLE18=Tennessee Waltz
TTITLE19=Till I Waltz Again With You
TTITLE20=To Each His Own
TTITLE21=Too Young
TTITLE22=Unchained Melody
TTITLE23=Vaya Con Dios
TTITLE24=You Always Hurt The One You Love
EXTD=
EXTT0=
EXTT1=
EXTT2=
EXTT3=
EXTT4=
EXTT5=
EXTT6=
EXTT7=
EXTT8=
EXTT9=
EXTT10=
EXTT11=
EXTT12=
EXTT13=
EXTT14=
EXTT15=
EXTT16=
EXTT17=
EXTT18=
EXTT19=
EXTT20=
EXTT21=
EXTT22=
EXTT23=
EXTT24=
PLAYORDER=
